<svg xmlns="http://www.w3.org/2000/svg" id="Layer_1" viewBox="0 0 361 127"><defs><style>.cls-1{fill:#16baad;}.cls-1,.cls-2,.cls-3,.cls-4{stroke-width:0px;}.cls-2{fill:#fff;}.cls-3{fill:#d1d3d4;}.cls-4{fill:#414042;}</style></defs><ellipse class="cls-3" cx="68.2" cy="110.6" rx="32.1" ry="6.8"></ellipse><polygon class="cls-2" points="352.2 9.8 8.6 9.8 8.6 70.9 47.6 70.9 68.5 107.1 89.4 70.9 352.2 70.9 352.2 9.8"></polygon><path class="cls-4" d="m68.5,108.6c-.5,0-1.1-.3-1.3-.8l-20.4-35.4H8.6c-.8,0-1.5-.7-1.5-1.5V9.9c0-.8.7-1.5,1.5-1.5h343.6c.8,0,1.5.7,1.5,1.5v61c0,.8-.7,1.5-1.5,1.5H90.3l-20.4,35.4c-.3.5-.8.8-1.4.8ZM10.1,69.3h37.5c.5,0,1.1.3,1.3.8l19.6,33.9,19.6-33.9c.3-.5.8-.8,1.3-.8h261.2V11.3H10.1v58Z"></path><path class="cls-1" d="m44.2,32.5c.1.1.2.1.2.2.1.1.1.2.1.3s0,.2-.1.3l-1.2,2c-.1.2-.3.3-.4.3h-.2c-.1,0-.1-.1-.2-.1-.5-.4-1.1-.7-1.7-.9s-1.2-.3-1.9-.3c-.8,0-1.6.2-2.3.5-.7.3-1.3.7-1.8,1.3-.5.5-.9,1.2-1.2,1.9-.3.7-.4,1.5-.4,2.4,0,.8.1,1.6.4,2.3.3.7.7,1.4,1.2,1.9.5.5,1.1,1,1.8,1.3s1.5.5,2.3.5c.7,0,1.3-.1,1.9-.3.6-.2,1.2-.5,1.7-.9q.1-.1.2-.1h.2c.1,0,.3.1.4.3l1.2,2.1c.1.1.1.2.1.3s0,.2-.1.3c-.1.1-.2.1-.2.2-.8.5-1.6.9-2.5,1.2-.9.3-1.8.4-2.8.4-.9,0-1.7-.1-2.5-.3-.8-.2-1.6-.5-2.3-1-.7-.4-1.3-.9-1.9-1.5-.6-.6-1.1-1.2-1.5-1.9-.4-.7-.7-1.4-1-2.3-.2-.8-.3-1.6-.3-2.5s.1-1.7.3-2.5.5-1.6,1-2.3c.4-.7.9-1.3,1.5-1.9.6-.6,1.2-1.1,1.9-1.5s1.5-.7,2.3-1c.8-.2,1.6-.3,2.5-.3,1,0,1.9.1,2.8.4.9.3,1.7.7,2.5,1.2Z"></path><path class="cls-1" d="m54.1,38.6h0l3.8-7.1c.1-.2.2-.3.2-.3.1,0,.2-.1.3-.1h3.4c.2,0,.2.1.2.2s-.1.2-.2.3c-1,1.7-2,3.4-3,5.1-1,1.7-2,3.4-3,5.1v7c0,.4-.2.6-.6.6h-2.5c-.3,0-.5-.2-.5-.6v-7l-6-10.2s-.1-.1-.1-.2v-.2c0-.1.1-.2.2-.2h3.7l.1.1c0,.1.1.1.1.2l3.9,7.3Z"></path><path class="cls-1" d="m64.4,31.7c0-.4.2-.6.6-.6h7.7c.7,0,1.4.1,2,.4.6.3,1.2.6,1.6,1.1.5.5.8,1,1.1,1.6.3.6.4,1.3.4,2s-.1,1.3-.4,1.9c-.2.6-.6,1.1-1,1.5.3.2.6.5.9.9.3.3.5.7.7,1,.2.4.3.8.5,1.2.1.4.2.8.2,1.3,0,.7-.1,1.4-.4,2.1s-.7,1.2-1.1,1.7c-.5.5-1,.9-1.7,1.2-.6.3-1.3.4-2.1.4h-8.5c-.2,0-.3,0-.4-.1s-.2-.2-.2-.4v-17.2h.1Zm9.8,4.7c0-.3-.1-.6-.2-.9s-.3-.5-.5-.7-.4-.4-.7-.5c-.3-.1-.6-.2-.9-.2h-4.1v4.5h4c.3,0,.6-.1.9-.2s.5-.3.7-.5.4-.4.5-.7c.3-.2.3-.5.3-.8Zm.9,7.6c0-.3,0-.6-.1-.8-.1-.3-.2-.5-.4-.7-.2-.2-.4-.4-.6-.5s-.5-.2-.8-.3c-.2,0-.3,0-.5-.1h-4.6v5h4.6c.2,0,.3,0,.5-.1.3,0,.5-.1.8-.3.2-.1.4-.3.6-.6.2-.2.3-.5.4-.7,0-.3.1-.6.1-.9Z"></path><path class="cls-1" d="m81.5,31.7c0-.4.2-.6.5-.6h12c.2,0,.4.1.5.2.1.1.1.3.1.5v2.2c0,.1-.1.3-.2.4-.1.1-.3.2-.5.2h-8.8v3.7h6.8c.2,0,.3,0,.4.1s.1.2.1.4v2.2c0,.1,0,.3-.1.4s-.2.2-.4.2h-6.8v4.5h9.1c.2,0,.4,0,.5.1s.1.3.1.5v2.3c0,.3-.2.5-.5.5h-12.3c-.1,0-.3,0-.4-.1s-.2-.2-.2-.4v-17.3h.1Z"></path><path class="cls-1" d="m97.8,31.7c0-.4.2-.6.5-.6h7.6c.8,0,1.6.2,2.3.5s1.4.7,1.9,1.3c.5.5,1,1.2,1.3,1.9.3.7.5,1.5.5,2.3,0,.6-.1,1.1-.2,1.6s-.4,1-.7,1.4-.6.8-1,1.2c-.4.4-.8.7-1.3.9l3.2,6.3c0,.1,0,.2.1.2,0,.1.1.2.1.3,0,.2-.1.4-.4.4h-2.9c-.3,0-.5-.2-.6-.5l-3-5.9h-3.8v6c0,.4-.2.5-.6.5h-2.5c-.2,0-.3,0-.4-.1s-.1-.2-.1-.4v-17.3h0Zm10.4,5.4c0-.4-.1-.7-.2-1-.1-.3-.3-.6-.6-.9-.2-.3-.5-.5-.9-.6-.3-.2-.7-.3-1.1-.3h-4.1v5.7h4.3c.4,0,.7-.1,1.1-.3.3-.2.6-.4.8-.6.2-.3.4-.6.5-.9.1-.4.2-.7.2-1.1Z"></path><path class="cls-4" d="m128.8,35.7c-.1,0-.2,0-.3-.1s-.2-.1-.3-.2h0c-.2-.2-.4-.3-.6-.5-.2-.2-.5-.4-.8-.5s-.6-.3-1-.4c-.4-.1-.7-.2-1.1-.2-.5,0-.9.1-1.2.2-.4.1-.7.2-.9.4s-.4.4-.5.6-.2.5-.2.8.1.6.3.8c.2.2.4.4.8.6.3.2.7.3,1.1.5.4.1.8.3,1.3.4.5.2,1,.3,1.5.5s1,.4,1.5.6.9.5,1.3.8.8.6,1,1c.3.4.5.8.7,1.2.2.4.3.9.3,1.5,0,.9-.2,1.7-.5,2.4-.4.7-.9,1.3-1.5,1.9-.6.5-1.4.9-2.3,1.2-.9.3-1.8.4-2.8.4-.6,0-1.3-.1-1.9-.2-.6-.1-1.2-.4-1.8-.6-.6-.3-1.1-.6-1.6-1s-1-.8-1.4-1.3h0v-.1c-.2-.2-.3-.4-.3-.6,0-.1,0-.2.1-.3,0-.1.1-.2.2-.3l.4-.4c.1-.1.3-.2.4-.4.1-.1.3-.3.4-.4.1-.1.3-.2.4-.3.1-.1.2-.1.3-.1s.2,0,.3.1.2.1.2.2v.1h0c.3.3.6.5,1,.8.4.2.7.5,1.1.7s.8.3,1.1.5.7.2,1.1.2c.5,0,.9-.1,1.3-.2.4-.1.7-.3,1-.5s.5-.5.7-.8.2-.6.2-1-.1-.7-.3-.9c-.2-.3-.5-.5-.8-.7s-.7-.4-1.2-.5c-.4-.1-.9-.3-1.3-.4-1-.3-1.9-.6-2.6-1-.8-.4-1.4-.8-1.9-1.2-.5-.4-.9-.9-1.1-1.5-.3-.5-.4-1.2-.4-1.8,0-.8.2-1.5.5-2.1s.7-1.2,1.3-1.6c.6-.4,1.3-.8,2.1-1.1s1.7-.4,2.7-.4c.8,0,1.5.1,2.3.4s1.5.6,2.2,1c.2.1.4.3.6.4.2.2.4.3.6.5.2.2.3.3.4.5.1.2.2.3.2.4s0,.2-.1.3c0,.1-.1.2-.2.3l-.4.4h0c-.1.1-.3.3-.4.4-.1.1-.3.3-.4.4-.1.1-.2.2-.4.3-.2-.1-.3-.1-.4-.1Z"></path><path class="cls-4" d="m132.6,48.7c0-.2.1-.3.1-.5.1-.1.1-.3.1-.4l6.7-16.6c0-.1.1-.2.2-.3.1-.1.3-.2.5-.2h2c.2,0,.3.1.4.1.1.1.2.2.2.3l.4,1,6.5,16.3v.3c0,.2-.2.4-.5.4h-2.4c-.2,0-.3,0-.4-.1s-.2-.2-.2-.3l-.2-.6c-.2-.4-.3-.8-.5-1.2-.2-.4-.3-.8-.5-1.2h-7.6c-.2.6-.4,1.1-.6,1.6-.2.5-.4,1-.5,1.3s-.3.5-.6.5h-2.5c-.2,0-.3,0-.4-.1q-.1-.1-.1-.3c-.1.1-.1,0-.1,0Zm8.7-13.2c-.4,1.1-.9,2.3-1.3,3.5-.4,1.2-.9,2.4-1.3,3.5h5.3l-2.7-7Z"></path><path class="cls-4" d="m152.5,31.4c0-.2,0-.3.1-.4.1-.1.2-.1.4-.2h11.8c.4,0,.6.2.6.6v2.2c0,.1-.1.3-.1.4-.1.1-.2.2-.4.2h-8.7v4.9h6.8c.1,0,.3,0,.4.1.1.1.2.2.2.4v2.1c0,.1,0,.3-.1.4s-.2.2-.4.2h-6.7v6.3c0,.3-.2.5-.6.5h-2.8c-.3,0-.5-.2-.5-.5v-17.2Z"></path><path class="cls-4" d="m168.3,31.4c0-.4.2-.6.5-.6h11.9c.2,0,.4.1.5.2.1.1.1.3.1.5v2.2c0,.1-.1.3-.2.4-.1.1-.3.2-.5.2h-8.8v3.7h6.8c.2,0,.3,0,.4.1.1.1.1.2.1.4v2.2c0,.1,0,.3-.1.4s-.2.2-.4.2h-6.8v4.5h9.1c.2,0,.4,0,.5.1s.1.3.1.5v2.3c0,.3-.2.5-.5.5h-12.2c-.1,0-.3,0-.4-.1-.1-.1-.2-.2-.2-.4v-17.3h.1Z"></path><path class="cls-4" d="m183.4,31.3c0-.2.1-.3.2-.4.1-.1.2-.1.4-.1h13c.1,0,.3,0,.4.1.1.1.2.2.2.4v2.2c0,.2-.1.3-.2.4-.1.1-.3.2-.5.2h-4.7v14.5c0,.1-.1.3-.2.4-.1.1-.2.2-.4.2h-2.4c-.1,0-.3-.1-.4-.2-.1-.1-.2-.2-.2-.4v-14.5h-4.7c-.2,0-.3-.1-.4-.2-.1-.1-.2-.3-.2-.5v-2.1h.1Z"></path><path class="cls-4" d="m206.6,38.3h0l3.8-7.1c.1-.2.2-.3.2-.3.1,0,.2-.1.3-.1h3.4c.2,0,.2.1.2.2s-.1.2-.2.3l-3,5.1c-1,1.7-2,3.4-3,5.1v7c0,.4-.2.6-.6.6h-2.5c-.3,0-.5-.2-.5-.6v-7l-6-10.2s-.1-.1-.1-.2v-.2c0-.1.1-.2.2-.2h3.7l.1.1c0,.1.1.1.1.2l3.9,7.3Z"></path><path class="cls-1" d="m219.9,31.2c0-.4.2-.6.6-.6h7c.8,0,1.6.2,2.3.5.7.3,1.3.8,1.8,1.3s.9,1.2,1.2,1.9c.3.7.4,1.4.4,2.2s-.1,1.5-.4,2.2-.7,1.3-1.2,1.9c-.5.5-1.1,1-1.8,1.3-.7.3-1.5.5-2.3.5h-4.1v6.2c0,.4-.2.5-.6.5h-2.5c-.4,0-.5-.2-.5-.5v-17.4h.1Zm9.7,5.3c0-.3-.1-.7-.2-1s-.3-.6-.5-.9c-.2-.3-.5-.5-.8-.6s-.7-.2-1.1-.2h-3.5v5.4h3.5c.4,0,.7-.1,1-.2s.6-.3.8-.6c.2-.3.4-.5.6-.9.2-.3.2-.7.2-1Z"></path><path class="cls-1" d="m236.3,31.2c0-.4.2-.6.5-.6h7.6c.8,0,1.6.2,2.3.5.7.3,1.4.7,1.9,1.3.5.5,1,1.2,1.3,1.9.3.7.5,1.5.5,2.3,0,.6-.1,1.1-.2,1.6-.2.5-.4,1-.7,1.4-.3.4-.6.8-1,1.2-.4.4-.8.7-1.3.9l3.2,6.3c0,.1,0,.2.1.2,0,.1.1.2.1.3,0,.2-.1.4-.4.4h-2.9c-.3,0-.5-.2-.6-.5l-3-5.9h-3.8v5.9c0,.4-.2.5-.6.5h-2.5c-.2,0-.3,0-.4-.1s-.1-.2-.1-.4v-17.2h0Zm10.4,5.4c0-.4-.1-.7-.2-1s-.3-.6-.6-.9c-.2-.3-.5-.5-.9-.6-.3-.2-.7-.3-1.1-.3h-4.1v5.7h4.3c.4,0,.7-.1,1.1-.3s.6-.4.8-.6c.2-.3.4-.6.5-.9.1-.4.2-.8.2-1.1Z"></path><path class="cls-1" d="m252.8,39.8c0-.9.1-1.7.3-2.5.2-.8.5-1.6,1-2.3.4-.7.9-1.3,1.5-1.9.6-.6,1.2-1.1,1.9-1.5.7-.4,1.5-.7,2.3-1,.8-.2,1.6-.3,2.5-.3s1.7.1,2.5.3,1.6.5,2.3,1c.7.4,1.3.9,1.9,1.5s1.1,1.2,1.5,1.9c.4.7.7,1.5,1,2.3.2.8.3,1.7.3,2.5s-.1,1.7-.3,2.5c-.2.8-.5,1.6-1,2.3-.4.7-.9,1.3-1.5,1.9s-1.2,1.1-1.9,1.5c-.7.4-1.5.7-2.3.9-.8.2-1.6.3-2.5.3s-1.7-.1-2.5-.3c-.8-.2-1.6-.5-2.3-1-.7-.4-1.3-.9-1.9-1.5s-1.1-1.2-1.5-1.9c-.4-.7-.7-1.4-.9-2.3-.3-.7-.4-1.5-.4-2.4Zm3.5,0c0,.8.1,1.6.5,2.3.3.7.7,1.4,1.2,1.9s1.1,1,1.9,1.3c.7.3,1.5.5,2.3.5s1.6-.2,2.3-.5c.7-.3,1.3-.7,1.9-1.3.5-.5.9-1.2,1.2-1.9.3-.7.5-1.5.5-2.3s-.2-1.6-.5-2.3c-.3-.7-.7-1.4-1.2-1.9s-1.1-1-1.9-1.3c-.7-.3-1.5-.5-2.3-.5s-1.6.2-2.3.5c-.7.3-1.3.7-1.9,1.3-.5.5-.9,1.2-1.2,1.9-.3.7-.5,1.5-.5,2.3Z"></path><path class="cls-1" d="m276.1,31.1c0-.3.2-.5.5-.5h2.5c.4,0,.6.2.6.6v16.8c0,.5,0,1-.1,1.5-.1.6-.3,1.2-.6,1.7-.3.5-.7,1-1.1,1.4-.5.4-1,.7-1.6.9-.6.2-1.2.3-1.8.3-.7,0-1.4-.1-2-.4-.6-.2-1.2-.6-1.7-1.1,0,0-.1-.1-.2-.1l-.2-.2q-.1-.1-.1-.2c0-.1-.1-.1-.1-.2s0-.1.1-.2c0-.1.1-.2.1-.3.1-.1.1-.2.2-.3.1-.1.1-.2.2-.2l1.1-1c.1,0,.1-.1.2-.1h.2c.1,0,.2,0,.4.1.1.1.2.2.4.3.1.1.3.2.5.3.2.1.4.1.7.1.2,0,.4-.1.6-.1.2-.1.4-.2.6-.4s.3-.3.4-.6c.1-.2.2-.4.2-.6v-17.5h0Z"></path><path class="cls-1" d="m283.7,31.2c0-.4.2-.6.5-.6h11.9c.2,0,.4.1.5.2.1.1.1.3.1.5v2.2c0,.1-.1.3-.2.4-.1.1-.3.2-.5.2h-8.8v3.7h6.8c.2,0,.3,0,.4.1s.1.2.1.4v2.2c0,.1,0,.3-.1.4s-.2.2-.4.2h-6.8v4.5h9.1c.2,0,.4,0,.5.1s.1.3.1.5v2.3c0,.3-.2.5-.5.5h-12.2c-.1,0-.3,0-.4-.1s-.2-.2-.2-.4v-17.3h.1Z"></path><path class="cls-1" d="m313.8,31.9c.1.1.2.1.2.2.1.1.1.2.1.3s0,.2-.1.3l-1.2,2c-.1.2-.3.3-.4.3h-.2c-.1,0-.1-.1-.2-.1-.5-.4-1.1-.7-1.7-.9s-1.2-.3-1.9-.3c-.8,0-1.6.2-2.3.5-.7.3-1.3.7-1.8,1.3-.5.5-.9,1.2-1.2,1.9-.3.7-.4,1.5-.4,2.4,0,.8.1,1.6.4,2.3.3.7.7,1.4,1.2,1.9s1.1,1,1.8,1.3c.7.3,1.5.5,2.3.5.7,0,1.3-.1,1.9-.3s1.2-.5,1.7-.9q.1-.1.2-.1h.2c.1,0,.3.1.4.3l1.2,2.1c.1.1.1.2.1.3s0,.2-.1.3c-.1.1-.2.1-.2.2-.8.5-1.6.9-2.5,1.2-.9.3-1.8.4-2.8.4-.9,0-1.7-.1-2.5-.3-.8-.2-1.6-.5-2.3-1-.7-.4-1.3-.9-1.9-1.5s-1.1-1.2-1.5-1.9c-.4-.7-.7-1.4-1-2.3-.2-.8-.3-1.6-.3-2.5s.1-1.7.3-2.5c.2-.8.5-1.6,1-2.3.4-.7.9-1.3,1.5-1.9.6-.6,1.2-1.1,1.9-1.5.7-.4,1.5-.7,2.3-1,.8-.2,1.6-.3,2.5-.3,1,0,1.9.1,2.8.4.9.3,1.8.7,2.5,1.2Z"></path><path class="cls-1" d="m316.4,31.2c0-.2.1-.3.2-.4.1-.1.2-.1.4-.1h13c.1,0,.3,0,.4.1s.2.2.2.4v2.2c0,.2-.1.3-.2.4-.1.1-.3.2-.5.2h-4.7v14.5c0,.1-.1.3-.2.4s-.2.2-.4.2h-2.4c-.1,0-.3-.1-.4-.2s-.2-.2-.2-.4v-14.6h-4.7c-.2,0-.3-.1-.4-.2-.1-.1-.2-.3-.2-.5v-2h.1Z"></path></svg>